<svg id="Layer_1" data-name="Layer 1" xmlns="http://www.w3.org/2000/svg" viewBox="0 0 4000 1000"><defs><style>.cls-1{fill:#fff;}.cls-2{fill:#19435e;}.cls-3{fill:#40f259;}</style></defs><title>Artboard 1</title><path class="cls-1" d="M307.79,697.85V247.78h-148V169.24H541.9v78.54H389.35V697.85Z"/><path class="cls-1" d="M927,499.24q0,60.43-26.81,106.86T827.72,679Q782,705.42,725.4,705.41T622.7,679a194.58,194.58,0,0,1-72.88-72.87Q523,559.66,523,499.24t26.81-106.85a194.65,194.65,0,0,1,72.88-72.87q46-26.43,102.7-26.43t102.32,26.43q45.69,26.43,72.5,72.87T927,499.24Zm-79.29,0q.74-40-15.49-70.6t-44.17-47.58q-27.95-17-62.68-17t-63.06,17q-28.32,17-44.55,47.58t-15.48,70.6q-.76,39.28,15.48,69.86t44.55,47.95q28.32,17.38,63.06,17.37t62.68-17.37Q816,599.7,832.25,569.1T847.74,499.24Z"/><path class="cls-1" d="M954.21,697.85l152.55-198.61L953.46,301.39h98.17L1158.86,441.1l90.62-139.71h92.13L1201.15,497l154.06,200.87h-95.15L1151.31,556.64l-105.72,142Z"/><path class="cls-1" d="M1473,215.3q-26.44,0-39.27-13.59t-12.84-35.49q0-18.87,12.84-34T1473,117.13q26.43,0,39.27,13.59t12.84,35.5q0,18.89-12.84,34T1473,215.3Zm40,482.55h-77.78V301.39H1513Z"/><path class="cls-1" d="M1680.68,499.24q0,39.28,17.75,69.86a134.52,134.52,0,0,0,46.82,48.33,117.47,117.47,0,0,0,62.3,17.74q37.76,0,65.7-19.63t45.31-40.78l43,52.86q-14.36,20.4-39.27,38.14a221.35,221.35,0,0,1-56.63,28.69,202.29,202.29,0,0,1-66.46,11q-54.37,0-98.17-27.19t-69.1-74q-25.31-46.82-25.3-105,0-58.89,25.3-105.34t69.1-73.63q43.79-27.18,98.17-27.18,55.11,0,98.17,22.27t64.19,57.77l-43,52.86q-17.38-25.65-49.47-44.17t-62.3-18.5q-35.51,0-64.19,17.74a126.86,126.86,0,0,0-45.31,48.33Q1680.67,460,1680.68,499.24Z"/><path class="cls-1" d="M2087,215.3q-26.44,0-39.27-13.59t-12.84-35.49q0-18.87,12.84-34T2087,117.13q26.43,0,39.27,13.59t12.84,35.5q0,18.89-12.84,34T2087,215.3Zm40,482.55h-77.78V301.39H2127Z"/><path class="cls-1" d="M2371.65,697.85h-77.78V376.91h-82.32V301.39h82.32V200.2h77.78V301.39h92.13v75.52h-92.13Z"/><path class="cls-1" d="M2601.21,871.54l64.94-148.77,2.27-5.28-184.26-416.1h90.62l123.84,291.5a87.78,87.78,0,0,1,4.53,11.32c1.52,4.53,3.27,9.57,5.29,15.11q3-8.31,5.66-16.24t5.67-15.48l103.46-286.21h92.13L2752.24,697.85,2685,871.54Z"/><circle class="cls-2" cx="3426" cy="500" r="414.22"/><circle class="cls-3" cx="3426" cy="499.85" r="54.66"/><path class="cls-3" d="M3513.74,499.85h239c0-120.93-65.7-226.52-163.35-283l-119.53,207A87.7,87.7,0,0,1,3513.74,499.85Z"/><path class="cls-3" d="M3382.12,423.85l-119.53-207c-97.65,56.5-163.35,162.09-163.35,283h239A87.72,87.72,0,0,1,3382.12,423.85Z"/><path class="cls-3" d="M3426,587.59a87.32,87.32,0,0,1-43.88-11.74l-119.53,207a327.1,327.1,0,0,0,326.81,0l-119.53-207A87.28,87.28,0,0,1,3426,587.59Z"/></svg>