<svg id="Layer_1" data-name="Layer 1" xmlns="http://www.w3.org/2000/svg" xmlns:xlink="http://www.w3.org/1999/xlink" viewBox="0 0 3840 2195.09"><defs><style>.cls-1{fill:url(#linear-gradient);}.cls-2{fill:#19435e;}.cls-3{fill:#25667c;}</style><linearGradient id="linear-gradient" y1="1097.35" x2="3840" y2="1097.35" gradientUnits="userSpaceOnUse"><stop offset="0" stop-color="#25667c"/><stop offset="1" stop-color="#19435e"/></linearGradient></defs><title>Artboard 1</title><rect class="cls-1" y="-0.39" width="3840" height="2195.48"/><circle class="cls-2" cx="274.29" cy="274.19" r="274.29"/><circle class="cls-3" cx="274.29" cy="274.09" r="36.19"/><path class="cls-3" d="M332.39,274.09H490.65A216.29,216.29,0,0,0,382.49,86.68L303.34,223.77A58.09,58.09,0,0,1,332.39,274.09Z"/><path class="cls-3" d="M245.23,223.77,166.08,86.68A216.29,216.29,0,0,0,57.92,274.09H216.18A58.09,58.09,0,0,1,245.23,223.77Z"/><path class="cls-3" d="M274.29,332.19a57.89,57.89,0,0,1-29.06-7.77L166.08,461.5a216.63,216.63,0,0,0,216.41,0L303.34,324.42A57.88,57.88,0,0,1,274.29,332.19Z"/><circle class="cls-2" cx="1371.43" cy="273.99" r="274.29"/><circle class="cls-3" cx="1371.43" cy="273.9" r="36.19"/><path class="cls-3" d="M1429.53,273.9H1587.8A216.28,216.28,0,0,0,1479.63,86.49l-79.15,137.08A58.07,58.07,0,0,1,1429.53,273.9Z"/><path class="cls-3" d="M1342.37,223.57,1263.23,86.49A216.26,216.26,0,0,0,1155.06,273.9h158.27A58.08,58.08,0,0,1,1342.37,223.57Z"/><path class="cls-3" d="M1371.43,332a57.9,57.9,0,0,1-29.06-7.78l-79.14,137.09a216.67,216.67,0,0,0,216.4,0l-79.15-137.09A57.86,57.86,0,0,1,1371.43,332Z"/><circle class="cls-3" cx="1920" cy="274.19" r="274.29"/><circle class="cls-2" cx="1920" cy="274.09" r="36.19"/><path class="cls-2" d="M1978.1,274.09h158.27A216.3,216.3,0,0,0,2028.2,86.68l-79.15,137.09A58.07,58.07,0,0,1,1978.1,274.09Z"/><path class="cls-2" d="M1891,223.77,1811.8,86.68a216.3,216.3,0,0,0-108.17,187.41H1861.9A58.07,58.07,0,0,1,1891,223.77Z"/><path class="cls-2" d="M1920,332.19a57.86,57.86,0,0,1-29-7.77L1811.8,461.5a216.61,216.61,0,0,0,216.4,0l-79.15-137.08A57.86,57.86,0,0,1,1920,332.19Z"/><circle class="cls-2" cx="2468.57" cy="274.19" r="274.29"/><circle class="cls-3" cx="2468.57" cy="274.09" r="36.19"/><path class="cls-3" d="M2526.67,274.09h158.27A216.27,216.27,0,0,0,2576.77,86.68l-79.14,137.09A58.08,58.08,0,0,1,2526.67,274.09Z"/><path class="cls-3" d="M2439.52,223.77,2360.37,86.68A216.3,216.3,0,0,0,2252.2,274.09h158.27A58.07,58.07,0,0,1,2439.52,223.77Z"/><path class="cls-3" d="M2468.57,332.19a57.86,57.86,0,0,1-29.05-7.77L2360.37,461.5a216.61,216.61,0,0,0,216.4,0l-79.14-137.08A57.89,57.89,0,0,1,2468.57,332.19Z"/><circle class="cls-2" cx="3565.71" cy="273.9" r="274.29"/><circle class="cls-3" cx="3565.71" cy="273.8" r="36.19"/><path class="cls-3" d="M3623.82,273.8h158.26A216.27,216.27,0,0,0,3673.92,86.39l-79.15,137.08A58.09,58.09,0,0,1,3623.82,273.8Z"/><path class="cls-3" d="M3536.66,223.47,3457.51,86.39A216.27,216.27,0,0,0,3349.35,273.8h158.26A58.09,58.09,0,0,1,3536.66,223.47Z"/><path class="cls-3" d="M3565.71,331.9a57.79,57.79,0,0,1-29.05-7.78l-79.15,137.09a216.63,216.63,0,0,0,216.41,0l-79.15-137.09A57.8,57.8,0,0,1,3565.71,331.9Z"/><circle class="cls-2" cx="822.86" cy="822.96" r="274.29"/><circle class="cls-3" cx="822.86" cy="822.86" r="36.19"/><path class="cls-3" d="M881,822.86h158.27A216.3,216.3,0,0,0,931.06,635.45L851.91,772.54A58.07,58.07,0,0,1,881,822.86Z"/><path class="cls-3" d="M793.8,772.54,714.66,635.45A216.27,216.27,0,0,0,606.49,822.86H764.76A58.08,58.08,0,0,1,793.8,772.54Z"/><path class="cls-3" d="M822.86,881a57.89,57.89,0,0,1-29.06-7.77l-79.14,137.08a216.61,216.61,0,0,0,216.4,0L851.91,873.19A57.88,57.88,0,0,1,822.86,881Z"/><circle class="cls-2" cx="1920" cy="823.06" r="274.29"/><circle class="cls-3" cx="1920" cy="822.96" r="36.19"/><path class="cls-3" d="M1978.1,823h158.27A216.3,216.3,0,0,0,2028.2,635.55l-79.15,137.09A58.07,58.07,0,0,1,1978.1,823Z"/><path class="cls-3" d="M1891,772.64,1811.8,635.55A216.3,216.3,0,0,0,1703.63,823H1861.9A58.07,58.07,0,0,1,1891,772.64Z"/><path class="cls-3" d="M1920,881.06a57.86,57.86,0,0,1-29-7.77l-79.15,137.08a216.61,216.61,0,0,0,216.4,0l-79.15-137.08A57.86,57.86,0,0,1,1920,881.06Z"/><circle class="cls-2" cx="3017.14" cy="823.06" r="274.29"/><circle class="cls-3" cx="3017.14" cy="822.96" r="36.19"/><path class="cls-3" d="M3075.24,823h158.27a216.27,216.27,0,0,0-108.17-187.41L3046.2,772.64A58.08,58.08,0,0,1,3075.24,823Z"/><path class="cls-3" d="M2988.09,772.64l-79.15-137.09A216.3,216.3,0,0,0,2800.77,823H2959A58.07,58.07,0,0,1,2988.09,772.64Z"/><path class="cls-3" d="M3017.14,881.06a57.88,57.88,0,0,1-29-7.77l-79.15,137.08a216.61,216.61,0,0,0,216.4,0L3046.2,873.29A57.89,57.89,0,0,1,3017.14,881.06Z"/><circle class="cls-2" cx="274.29" cy="1371.93" r="274.29"/><circle class="cls-3" cx="274.29" cy="1371.83" r="36.19"/><path class="cls-3" d="M332.39,1371.83H490.65a216.29,216.29,0,0,0-108.16-187.41l-79.15,137.09A58.08,58.08,0,0,1,332.39,1371.83Z"/><path class="cls-3" d="M245.23,1321.51l-79.15-137.09A216.29,216.29,0,0,0,57.92,1371.83H216.18A58.08,58.08,0,0,1,245.23,1321.51Z"/><path class="cls-3" d="M274.29,1429.93a57.89,57.89,0,0,1-29.06-7.77l-79.15,137.08a216.63,216.63,0,0,0,216.41,0l-79.15-137.08A57.88,57.88,0,0,1,274.29,1429.93Z"/><circle class="cls-2" cx="1371.43" cy="1371.73" r="274.29"/><circle class="cls-3" cx="1371.43" cy="1371.63" r="36.19"/><path class="cls-3" d="M1429.53,1371.63H1587.8a216.3,216.3,0,0,0-108.17-187.41l-79.15,137.09A58.07,58.07,0,0,1,1429.53,1371.63Z"/><path class="cls-3" d="M1342.37,1321.31l-79.14-137.09a216.27,216.27,0,0,0-108.17,187.41h158.27A58.08,58.08,0,0,1,1342.37,1321.31Z"/><path class="cls-3" d="M1371.43,1429.73a57.89,57.89,0,0,1-29.06-7.77L1263.23,1559a216.61,216.61,0,0,0,216.4,0L1400.48,1422A57.86,57.86,0,0,1,1371.43,1429.73Z"/><circle class="cls-2" cx="3565.71" cy="1371.63" r="274.29"/><circle class="cls-3" cx="3565.71" cy="1371.53" r="36.19"/><path class="cls-3" d="M3623.82,1371.53h158.26a216.29,216.29,0,0,0-108.16-187.41l-79.15,137.09A58.09,58.09,0,0,1,3623.82,1371.53Z"/><path class="cls-3" d="M3536.66,1321.21l-79.15-137.09a216.29,216.29,0,0,0-108.16,187.41h158.26A58.09,58.09,0,0,1,3536.66,1321.21Z"/><path class="cls-3" d="M3565.71,1429.64a57.89,57.89,0,0,1-29.05-7.78l-79.15,137.08a216.63,216.63,0,0,0,216.41,0l-79.15-137.08A57.9,57.9,0,0,1,3565.71,1429.64Z"/><circle class="cls-2" cx="822.86" cy="1920.55" r="274.29"/><circle class="cls-3" cx="822.86" cy="1920.45" r="36.19"/><path class="cls-3" d="M881,1920.45h158.27A216.3,216.3,0,0,0,931.06,1733l-79.15,137.09A58.06,58.06,0,0,1,881,1920.45Z"/><path class="cls-3" d="M793.8,1870.13,714.66,1733a216.27,216.27,0,0,0-108.17,187.41H764.76A58.07,58.07,0,0,1,793.8,1870.13Z"/><path class="cls-3" d="M822.86,1978.55a57.89,57.89,0,0,1-29.06-7.77l-79.14,137.08a216.61,216.61,0,0,0,216.4,0l-79.15-137.08A57.88,57.88,0,0,1,822.86,1978.55Z"/><circle class="cls-2" cx="1920" cy="1921.05" r="274.29"/><circle class="cls-3" cx="1920" cy="1920.95" r="36.19"/><path class="cls-3" d="M1978.1,1921h158.27a216.28,216.28,0,0,0-108.17-187.41l-79.15,137.08A58.07,58.07,0,0,1,1978.1,1921Z"/><path class="cls-3" d="M1891,1870.62l-79.15-137.08A216.28,216.28,0,0,0,1703.63,1921H1861.9A58.07,58.07,0,0,1,1891,1870.62Z"/><path class="cls-3" d="M1920,1979.05a57.76,57.76,0,0,1-29-7.78l-79.15,137.09a216.61,216.61,0,0,0,216.4,0l-79.15-137.09A57.76,57.76,0,0,1,1920,1979.05Z"/><circle class="cls-2" cx="2475.71" cy="1371.53" r="274.29"/><circle class="cls-3" cx="2475.71" cy="1371.43" r="36.19"/><path class="cls-3" d="M2533.81,1371.43h158.27A216.31,216.31,0,0,0,2583.91,1184l-79.14,137.09A58.08,58.08,0,0,1,2533.81,1371.43Z"/><path class="cls-3" d="M2446.66,1321.11,2367.51,1184a216.31,216.31,0,0,0-108.17,187.41h158.27A58.07,58.07,0,0,1,2446.66,1321.11Z"/><path class="cls-3" d="M2475.71,1429.54a57.86,57.86,0,0,1-29.05-7.78l-79.15,137.08a216.61,216.61,0,0,0,216.4,0l-79.14-137.08A57.9,57.9,0,0,1,2475.71,1429.54Z"/><circle class="cls-2" cx="3017.14" cy="1920.8" r="274.29"/><circle class="cls-3" cx="3017.14" cy="1920.7" r="36.19"/><path class="cls-3" d="M3075.24,1920.7h158.27a216.26,216.26,0,0,0-108.17-187.41l-79.14,137.09A58.07,58.07,0,0,1,3075.24,1920.7Z"/><path class="cls-3" d="M2988.09,1870.38l-79.15-137.09a216.28,216.28,0,0,0-108.17,187.41H2959A58.06,58.06,0,0,1,2988.09,1870.38Z"/><path class="cls-3" d="M3017.14,1978.8a57.79,57.79,0,0,1-29-7.78l-79.15,137.09a216.61,216.61,0,0,0,216.4,0L3046.2,1971A57.8,57.8,0,0,1,3017.14,1978.8Z"/><circle class="cls-3" cx="822.86" cy="273.8" r="274.29"/><circle class="cls-2" cx="822.86" cy="273.7" r="36.19"/><path class="cls-2" d="M881,273.7h158.27A216.28,216.28,0,0,0,931.06,86.29L851.91,223.37A58.07,58.07,0,0,1,881,273.7Z"/><path class="cls-2" d="M793.8,223.37,714.66,86.29A216.26,216.26,0,0,0,606.49,273.7H764.76A58.08,58.08,0,0,1,793.8,223.37Z"/><path class="cls-2" d="M822.86,331.8A57.8,57.8,0,0,1,793.8,324L714.66,461.11a216.61,216.61,0,0,0,216.4,0L851.91,324A57.79,57.79,0,0,1,822.86,331.8Z"/><circle class="cls-3" cx="3017.14" cy="273.7" r="274.29"/><circle class="cls-2" cx="3017.14" cy="273.6" r="36.19"/><path class="cls-2" d="M3075.24,273.6h158.27A216.26,216.26,0,0,0,3125.34,86.19L3046.2,223.27A58.08,58.08,0,0,1,3075.24,273.6Z"/><path class="cls-2" d="M2988.09,223.27,2908.94,86.19A216.28,216.28,0,0,0,2800.77,273.6H2959A58.07,58.07,0,0,1,2988.09,223.27Z"/><path class="cls-2" d="M3017.14,331.7a57.79,57.79,0,0,1-29-7.78L2908.94,461a216.61,216.61,0,0,0,216.4,0L3046.2,323.92A57.8,57.8,0,0,1,3017.14,331.7Z"/><circle class="cls-3" cx="1371.43" cy="823.31" r="274.29"/><circle class="cls-2" cx="1371.43" cy="823.21" r="36.19"/><path class="cls-2" d="M1429.53,823.21H1587.8A216.28,216.28,0,0,0,1479.63,635.8l-79.15,137.09A58.06,58.06,0,0,1,1429.53,823.21Z"/><path class="cls-2" d="M1342.37,772.89,1263.23,635.8a216.26,216.26,0,0,0-108.17,187.41h158.27A58.07,58.07,0,0,1,1342.37,772.89Z"/><path class="cls-2" d="M1371.43,881.31a57.8,57.8,0,0,1-29.06-7.78l-79.14,137.09a216.61,216.61,0,0,0,216.4,0l-79.15-137.09A57.76,57.76,0,0,1,1371.43,881.31Z"/><circle class="cls-3" cx="274.29" cy="822.91" r="274.29"/><circle class="cls-2" cx="274.29" cy="822.81" r="36.19"/><path class="cls-2" d="M332.39,822.81H490.65A216.29,216.29,0,0,0,382.49,635.4L303.34,772.49A58.09,58.09,0,0,1,332.39,822.81Z"/><path class="cls-2" d="M245.23,772.49,166.08,635.4A216.29,216.29,0,0,0,57.92,822.81H216.18A58.09,58.09,0,0,1,245.23,772.49Z"/><path class="cls-2" d="M274.29,880.91a57.89,57.89,0,0,1-29.06-7.77l-79.15,137.08a216.63,216.63,0,0,0,216.41,0L303.34,873.14A57.88,57.88,0,0,1,274.29,880.91Z"/><circle class="cls-3" cx="2468.57" cy="822.81" r="274.29"/><circle class="cls-2" cx="2468.57" cy="822.71" r="36.19"/><path class="cls-2" d="M2526.67,822.71h158.27A216.29,216.29,0,0,0,2576.77,635.3l-79.14,137.09A58.08,58.08,0,0,1,2526.67,822.71Z"/><path class="cls-2" d="M2439.52,772.39,2360.37,635.3A216.31,216.31,0,0,0,2252.2,822.71h158.27A58.07,58.07,0,0,1,2439.52,772.39Z"/><path class="cls-2" d="M2468.57,880.82a57.86,57.86,0,0,1-29.05-7.78l-79.15,137.08a216.61,216.61,0,0,0,216.4,0L2497.63,873A57.9,57.9,0,0,1,2468.57,880.82Z"/><circle class="cls-3" cx="1920" cy="1371.88" r="274.29"/><circle class="cls-2" cx="1920" cy="1371.78" r="36.19"/><path class="cls-2" d="M1978.1,1371.78h158.27a216.3,216.3,0,0,0-108.17-187.41l-79.15,137.09A58.06,58.06,0,0,1,1978.1,1371.78Z"/><path class="cls-2" d="M1891,1321.46l-79.15-137.09a216.3,216.3,0,0,0-108.17,187.41H1861.9A58.06,58.06,0,0,1,1891,1321.46Z"/><path class="cls-2" d="M1920,1429.88a57.86,57.86,0,0,1-29-7.77l-79.15,137.08a216.61,216.61,0,0,0,216.4,0l-79.15-137.08A57.86,57.86,0,0,1,1920,1429.88Z"/><circle class="cls-3" cx="822.86" cy="1371.48" r="274.29"/><circle class="cls-2" cx="822.86" cy="1371.39" r="36.19"/><path class="cls-2" d="M881,1371.39h158.27A216.28,216.28,0,0,0,931.06,1184l-79.15,137.08A58.07,58.07,0,0,1,881,1371.39Z"/><path class="cls-2" d="M793.8,1321.06,714.66,1184a216.26,216.26,0,0,0-108.17,187.41H764.76A58.08,58.08,0,0,1,793.8,1321.06Z"/><path class="cls-2" d="M822.86,1429.49a57.9,57.9,0,0,1-29.06-7.78L714.66,1558.8a216.67,216.67,0,0,0,216.4,0l-79.15-137.09A57.89,57.89,0,0,1,822.86,1429.49Z"/><circle class="cls-3" cx="3017.14" cy="1371.39" r="274.29"/><circle class="cls-2" cx="3017.14" cy="1371.29" r="36.19"/><path class="cls-2" d="M3075.24,1371.29h158.27a216.26,216.26,0,0,0-108.17-187.41L3046.2,1321A58.08,58.08,0,0,1,3075.24,1371.29Z"/><path class="cls-2" d="M2988.09,1321l-79.15-137.08a216.28,216.28,0,0,0-108.17,187.41H2959A58.07,58.07,0,0,1,2988.09,1321Z"/><path class="cls-2" d="M3017.14,1429.39a57.79,57.79,0,0,1-29-7.78l-79.15,137.09a216.61,216.61,0,0,0,216.4,0l-79.14-137.09A57.8,57.8,0,0,1,3017.14,1429.39Z"/><circle class="cls-3" cx="1371.43" cy="1921.05" r="274.29"/><circle class="cls-2" cx="1371.43" cy="1920.95" r="36.19"/><path class="cls-2" d="M1429.53,1921H1587.8a216.28,216.28,0,0,0-108.17-187.41l-79.15,137.08A58.07,58.07,0,0,1,1429.53,1921Z"/><path class="cls-2" d="M1342.37,1870.62l-79.14-137.08A216.26,216.26,0,0,0,1155.06,1921h158.27A58.08,58.08,0,0,1,1342.37,1870.62Z"/><path class="cls-2" d="M1371.43,1979.05a57.8,57.8,0,0,1-29.06-7.78l-79.14,137.09a216.61,216.61,0,0,0,216.4,0l-79.15-137.09A57.76,57.76,0,0,1,1371.43,1979.05Z"/><circle class="cls-3" cx="274.29" cy="1920.65" r="274.29"/><circle class="cls-2" cx="274.29" cy="1920.55" r="36.19"/><path class="cls-2" d="M332.39,1920.55H490.65a216.29,216.29,0,0,0-108.16-187.41l-79.15,137.09A58.08,58.08,0,0,1,332.39,1920.55Z"/><path class="cls-2" d="M245.23,1870.23l-79.15-137.09A216.29,216.29,0,0,0,57.92,1920.55H216.18A58.08,58.08,0,0,1,245.23,1870.23Z"/><path class="cls-2" d="M274.29,1978.65a57.89,57.89,0,0,1-29.06-7.77L166.08,2108a216.63,216.63,0,0,0,216.41,0l-79.15-137.08A57.88,57.88,0,0,1,274.29,1978.65Z"/><circle class="cls-3" cx="2468.57" cy="1920.55" r="274.29"/><circle class="cls-2" cx="2468.57" cy="1920.45" r="36.19"/><path class="cls-2" d="M2526.67,1920.45h158.27A216.27,216.27,0,0,0,2576.77,1733l-79.14,137.09A58.07,58.07,0,0,1,2526.67,1920.45Z"/><path class="cls-2" d="M2439.52,1870.13,2360.37,1733a216.3,216.3,0,0,0-108.17,187.41h158.27A58.06,58.06,0,0,1,2439.52,1870.13Z"/><path class="cls-2" d="M2468.57,1978.55a57.86,57.86,0,0,1-29.05-7.77l-79.15,137.08a216.61,216.61,0,0,0,216.4,0l-79.14-137.08A57.89,57.89,0,0,1,2468.57,1978.55Z"/><circle class="cls-3" cx="3565.71" cy="1920.45" r="274.29"/><circle class="cls-2" cx="3565.71" cy="1920.35" r="36.19"/><path class="cls-2" d="M3623.82,1920.35h158.26a216.29,216.29,0,0,0-108.16-187.41L3594.77,1870A58.09,58.09,0,0,1,3623.82,1920.35Z"/><path class="cls-2" d="M3536.66,1870l-79.15-137.09a216.29,216.29,0,0,0-108.16,187.41h158.26A58.09,58.09,0,0,1,3536.66,1870Z"/><path class="cls-2" d="M3565.71,1978.45a57.88,57.88,0,0,1-29.05-7.77l-79.15,137.08a216.63,216.63,0,0,0,216.41,0l-79.15-137.08A57.89,57.89,0,0,1,3565.71,1978.45Z"/><circle class="cls-3" cx="3565.71" cy="822.71" r="274.29"/><circle class="cls-2" cx="3565.71" cy="822.62" r="36.19"/><path class="cls-2" d="M3623.82,822.62h158.26a216.27,216.27,0,0,0-108.16-187.41l-79.15,137.08A58.09,58.09,0,0,1,3623.82,822.62Z"/><path class="cls-2" d="M3536.66,772.29l-79.15-137.08a216.28,216.28,0,0,0-108.17,187.41h158.27A58.09,58.09,0,0,1,3536.66,772.29Z"/><path class="cls-2" d="M3565.71,880.72a57.89,57.89,0,0,1-29.05-7.78L3457.51,1010a216.69,216.69,0,0,0,216.41,0l-79.15-137.09A57.9,57.9,0,0,1,3565.71,880.72Z"/></svg>